<svg width="40" height="40" viewBox="0 0 40 40" fill="none" xmlns="http://www.w3.org/2000/svg">
  <rect width="40" height="40" rx="8" fill="#F3F4F6"/>
  <path d="M12 14C12 12.8954 12.8954 12 14 12H26C27.1046 12 28 12.8954 28 14V26C28 27.1046 27.1046 28 26 28H14C12.8954 28 12 27.1046 12 26V14Z" fill="#E5E7EB"/>
  <path d="M20 16C17.7909 16 16 17.7909 16 20C16 22.2091 17.7909 24 20 24C22.2091 24 24 22.2091 24 20C24 17.7909 22.2091 16 20 16ZM20 22.6667C18.5272 22.6667 17.3333 21.4728 17.3333 20C17.3333 18.5272 18.5272 17.3333 20 17.3333C21.4728 17.3333 22.6667 18.5272 22.6667 20C22.6667 21.4728 21.4728 22.6667 20 22.6667Z" fill="#9CA3AF"/>
  <path d="M20 18.6667C19.2636 18.6667 18.6667 19.2636 18.6667 20C18.6667 20.7364 19.2636 21.3333 20 21.3333C20.7364 21.3333 21.3333 20.7364 21.3333 20C21.3333 19.2636 20.7364 18.6667 20 18.6667Z" fill="#9CA3AF"/>
</svg> 